<svg width="16" height="16" viewBox="0 0 16 16" fill="none" xmlns="http://www.w3.org/2000/svg">
<g clip-path="url(#clip0_277_400)">
<path d="M8 0C6.78029 0 5.62596 0.272674 4.58931 0.760126H11.4088C10.374 0.272674 9.21971 0 8 0ZM5.44105 1.52212H3.30236C2.98296 1.75184 2.68223 2.0077 2.40205 2.28225H4.3633C4.69204 1.99276 5.05253 1.73503 5.44105 1.52212ZM9.53537 3.80623H14.8139C14.6514 3.5429 14.4721 3.28703 14.2816 3.04424H9.53537V3.80623V3.80623ZM3.63484 3.04424H1.71655C1.52417 3.28703 1.34485 3.5429 1.18235 3.80623H3.11371C3.26874 3.53916 3.44245 3.2833 3.63484 3.04424V3.04424ZM9.53537 2.28225H13.5961C13.314 2.0077 13.0133 1.75184 12.6939 1.52212H9.5335V2.28225H9.53537ZM16 7.9972C16 7.87207 15.9963 7.7432 15.9888 7.6162H13.23C13.1216 7.35287 12.9965 7.09887 12.8564 6.85421H15.9178C15.8805 6.59648 15.8319 6.34061 15.7703 6.09221H12.3334C12.113 5.81767 11.8683 5.56367 11.6031 5.33209H15.5461C15.4546 5.07062 15.3481 4.81662 15.2323 4.57009H6.45529V8.38006H9.53537V12.19H1.18235C1.34485 12.4534 1.52417 12.7074 1.71655 12.9502H6.44968V13.714H2.40205C2.68223 13.9886 2.98482 14.2444 3.30423 14.4741H6.45155V15.238H4.58744C5.62409 15.7273 6.77843 16 7.99813 16C9.21784 16 10.3722 15.7292 11.407 15.238H10.5459C10.9307 15.0232 11.2893 14.7674 11.618 14.4741H12.692C13.0096 14.2463 13.3122 13.9904 13.5942 13.714H12.3428C12.5333 13.4731 12.707 13.2191 12.862 12.9502H14.2778C14.4702 12.7092 14.6495 12.4552 14.812 12.19H13.2318C13.3308 11.9416 13.4149 11.6876 13.4821 11.428H15.2267C15.3425 11.1778 15.449 10.9256 15.5405 10.6642H13.626C13.6558 10.4176 13.6727 10.1674 13.6727 9.90965V9.90218H15.7665C15.8263 9.65192 15.8767 9.39792 15.9141 9.14206H13.626C13.5923 8.88246 13.5438 8.62846 13.4803 8.38006H15.9888C15.9963 8.25306 16 8.1242 16 7.9972V7.9972ZM3.63484 10.6642H0.455755C0.549148 10.9256 0.651879 11.1778 0.769554 11.428H4.3633C4.09993 11.1946 3.85524 10.9387 3.63484 10.6642V10.6642ZM2.742 9.14206H0.0821854C0.117675 9.39979 0.166239 9.65379 0.227878 9.90218H3.11371C2.97175 9.65752 2.8466 9.40353 2.74014 9.14206H2.742ZM2.29932 6.85608C2.29932 6.59834 2.31613 6.34248 2.34602 6.09408H0.227878C0.166239 6.34435 0.117675 6.59834 0.0821854 6.85608H2.29932V6.85608ZM2.742 4.57196H0.769554C0.651879 4.81849 0.549148 5.07249 0.455755 5.33396H2.49171C2.55709 5.07249 2.64301 4.81849 2.742 4.57196V4.57196ZM2.34602 7.61807H0.00933925C0.0037357 7.7432 0 7.87207 0 7.99907C0 8.12607 0.0037357 8.25306 0.00933925 8.38193H2.49171C2.42634 8.13354 2.37777 7.87767 2.34602 7.61994V7.61807Z" fill="#004A98"/>
</g>
<defs>
<clipPath id="clip0_277_400">
<rect width="16" height="16" fill="white"/>
</clipPath>
</defs>
</svg>
